{
    "asset" : {
        "generator" : "Khronos glTF Blender I/O v1.7.33",
        "version" : "2.0"
    },
    "scene" : 0,
    "scenes" : [
        {
            "name" : "Scene",
            "nodes" : [
                0
            ]
        }
    ],
    "nodes" : [
        {
            "mesh" : 0,
            "name" : "VM_tshirt_basic",
            "scale" : [
                0.02539999969303608,
                0.02539999969303608,
                0.02539999969303608
            ]
        }
    ],
    "animations" : [
        {
            "channels" : [
                {
                    "sampler" : 0,
                    "target" : {
                        "node" : 0,
                        "path" : "translation"
                    }
                },
                {
                    "sampler" : 1,
                    "target" : {
                        "node" : 0,
                        "path" : "rotation"
                    }
                },
                {
                    "sampler" : 2,
                    "target" : {
                        "node" : 0,
                        "path" : "scale"
                    }
                }
            ],
            "name" : "VM_tshirt_basic|Take 001|BaseLayer.001",
            "samplers" : [
                {
                    "input" : 15,
                    "interpolation" : "STEP",
                    "output" : 16
                },
                {
                    "input" : 15,
                    "interpolation" : "STEP",
                    "output" : 17
                },
                {
                    "input" : 15,
                    "interpolation" : "STEP",
                    "output" : 18
                }
            ]
        }
    ],
    "materials" : [
        {
            "doubleSided" : true,
            "name" : "main",
            "pbrMetallicRoughness" : {
                "baseColorTexture" : {
                    "index" : 0
                },
                "roughnessFactor" : 0.858578622341156
            }
        },
        {
            "doubleSided" : true,
            "name" : "front",
            "pbrMetallicRoughness" : {
                "baseColorTexture" : {
                    "index" : 1
                },
                "roughnessFactor" : 0.858578622341156
            }
        },
        {
            "doubleSided" : true,
            "name" : "back",
            "pbrMetallicRoughness" : {
                "baseColorTexture" : {
                    "index" : 2
                },
                "roughnessFactor" : 0.858578622341156
            }
        }
    ],
    "meshes" : [
        {
            "name" : "Mesh.001",
            "primitives" : [
                {
                    "attributes" : {
                        "POSITION" : 0,
                        "NORMAL" : 1,
                        "TEXCOORD_0" : 2,
                        "TEXCOORD_1" : 3
                    },
                    "indices" : 4,
                    "material" : 0
                },
                {
                    "attributes" : {
                        "POSITION" : 5,
                        "NORMAL" : 6,
                        "TEXCOORD_0" : 7,
                        "TEXCOORD_1" : 8
                    },
                    "indices" : 9,
                    "material" : 1
                },
                {
                    "attributes" : {
                        "POSITION" : 10,
                        "NORMAL" : 11,
                        "TEXCOORD_0" : 12,
                        "TEXCOORD_1" : 13
                    },
                    "indices" : 14,
                    "material" : 2
                }
            ]
        }
    ],
    "textures" : [
        {
            "sampler" : 0,
            "source" : 0
        },
        {
            "sampler" : 0,
            "source" : 0
        },
        {
            "sampler" : 0,
            "source" : 0
        }
    ],
    "images" : [
        {
            "bufferView" : 5,
            "mimeType" : "image/jpeg",
            "name" : "uv_checker_512x512"
        }
    ],
    "accessors" : [
        {
            "bufferView" : 0,
            "componentType" : 5126,
            "count" : 2369,
            "max" : [
                40.268028259277344,
                40.094703674316406,
                17.706933975219727
            ],
            "min" : [
                -40.33230972290039,
                -42.70359802246094,
                -19.091047286987305
            ],
            "type" : "VEC3"
        },
        {
            "bufferView" : 1,
            "componentType" : 5126,
            "count" : 2369,
            "type" : "VEC3"
        },
        {
            "bufferView" : 2,
            "componentType" : 5126,
            "count" : 2369,
            "type" : "VEC2"
        },
        {
            "bufferView" : 3,
            "componentType" : 5126,
            "count" : 2369,
            "type" : "VEC2"
        },
        {
            "bufferView" : 4,
            "componentType" : 5123,
            "count" : 10968,
            "type" : "SCALAR"
        },
        {
            "bufferView" : 6,
            "componentType" : 5126,
            "count" : 312,
            "max" : [
                18.61940574645996,
                28.113300323486328,
                19.5308895111084
            ],
            "min" : [
                -19.002790451049805,
                -34.847434997558594,
                5.768144607543945
            ],
            "type" : "VEC3"
        },
        {
            "bufferView" : 7,
            "componentType" : 5126,
            "count" : 312,
            "type" : "VEC3"
        },
        {
            "bufferView" : 8,
            "componentType" : 5126,
            "count" : 312,
            "type" : "VEC2"
        },
        {
            "bufferView" : 9,
            "componentType" : 5126,
            "count" : 312,
            "type" : "VEC2"
        },
        {
            "bufferView" : 10,
            "componentType" : 5123,
            "count" : 1614,
            "type" : "SCALAR"
        },
        {
            "bufferView" : 11,
            "componentType" : 5126,
            "count" : 187,
            "max" : [
                17.754226684570312,
                33.484649658203125,
                -8.451788902282715
            ],
            "min" : [
                -17.553180694580078,
                -28.97190284729004,
                -19.5308895111084
            ],
            "type" : "VEC3"
        },
        {
            "bufferView" : 12,
            "componentType" : 5126,
            "count" : 187,
            "type" : "VEC3"
        },
        {
            "bufferView" : 13,
            "componentType" : 5126,
            "count" : 187,
            "type" : "VEC2"
        },
        {
            "bufferView" : 14,
            "componentType" : 5126,
            "count" : 187,
            "type" : "VEC2"
        },
        {
            "bufferView" : 15,
            "componentType" : 5123,
            "count" : 918,
            "type" : "SCALAR"
        },
        {
            "bufferView" : 16,
            "componentType" : 5126,
            "count" : 1,
            "max" : [
                0.03333333333333333
            ],
            "min" : [
                0.03333333333333333
            ],
            "type" : "SCALAR"
        },
        {
            "bufferView" : 17,
            "componentType" : 5126,
            "count" : 1,
            "type" : "VEC3"
        },
        {
            "bufferView" : 18,
            "componentType" : 5126,
            "count" : 1,
            "type" : "VEC4"
        },
        {
            "bufferView" : 19,
            "componentType" : 5126,
            "count" : 1,
            "type" : "VEC3"
        }
    ],
    "bufferViews" : [
        {
            "buffer" : 0,
            "byteLength" : 28428,
            "byteOffset" : 0
        },
        {
            "buffer" : 0,
            "byteLength" : 28428,
            "byteOffset" : 28428
        },
        {
            "buffer" : 0,
            "byteLength" : 18952,
            "byteOffset" : 56856
        },
        {
            "buffer" : 0,
            "byteLength" : 18952,
            "byteOffset" : 75808
        },
        {
            "buffer" : 0,
            "byteLength" : 21936,
            "byteOffset" : 94760
        },
        {
            "buffer" : 0,
            "byteLength" : 19406,
            "byteOffset" : 116696
        },
        {
            "buffer" : 0,
            "byteLength" : 3744,
            "byteOffset" : 136104
        },
        {
            "buffer" : 0,
            "byteLength" : 3744,
            "byteOffset" : 139848
        },
        {
            "buffer" : 0,
            "byteLength" : 2496,
            "byteOffset" : 143592
        },
        {
            "buffer" : 0,
            "byteLength" : 2496,
            "byteOffset" : 146088
        },
        {
            "buffer" : 0,
            "byteLength" : 3228,
            "byteOffset" : 148584
        },
        {
            "buffer" : 0,
            "byteLength" : 2244,
            "byteOffset" : 151812
        },
        {
            "buffer" : 0,
            "byteLength" : 2244,
            "byteOffset" : 154056
        },
        {
            "buffer" : 0,
            "byteLength" : 1496,
            "byteOffset" : 156300
        },
        {
            "buffer" : 0,
            "byteLength" : 1496,
            "byteOffset" : 157796
        },
        {
            "buffer" : 0,
            "byteLength" : 1836,
            "byteOffset" : 159292
        },
        {
            "buffer" : 0,
            "byteLength" : 4,
            "byteOffset" : 161128
        },
        {
            "buffer" : 0,
            "byteLength" : 12,
            "byteOffset" : 161132
        },
        {
            "buffer" : 0,
            "byteLength" : 16,
            "byteOffset" : 161144
        },
        {
            "buffer" : 0,
            "byteLength" : 12,
            "byteOffset" : 161160
        }
    ],
    "samplers" : [
        {
            "magFilter" : 9729,
            "minFilter" : 9987
        }
    ],
    "buffers" : [
        {
            "byteLength" : 161172,
            "uri" : "data:application/octet-stream;base64,"
        }
    ]
}
